<svg xmlns="http://www.w3.org/2000/svg" xmlns:xlink="http://www.w3.org/1999/xlink" version="1.1" id="Layer_1" x="0px" y="0px" width="14pt" height="14pt" viewBox="5.0 -10.0 100.0 100.0" enable-background="new 0 0 100 100" xml:space="preserve">
<path fill="black" d="M79.244,100H20.757c-2.085,0-3.774-1.689-3.774-3.775V58.113c0-2.084,1.689-3.773,3.774-3.773h3.773V38.191  c0-14.066,11.403-25.47,25.471-25.47c14.065,0,25.47,11.403,25.47,25.47V54.34h3.773c2.084,0,3.773,1.689,3.773,3.773v38.111  C83.018,98.311,81.328,100,79.244,100z M63.482,38.945c0-7.445-6.037-13.48-13.481-13.48c-7.446,0-13.481,6.035-13.481,13.48V54.34  h26.963V38.945z"/>
</svg>

