<svg xmlns="http://www.w3.org/2000/svg" xmlns:xlink="http://www.w3.org/1999/xlink" version="1.0" id="Layer_1" x="0px" y="0px" viewBox="0 0 24 24" enable-background="new 0 0 24 24" xml:space="preserve" height="24pt" width="24pt">
<circle cx="12" cy="7" r="2"/>
<path fill="none" stroke="#000000" stroke-width="2" stroke-miterlimit="10" d="M4,17l2.8-0.7c0.7-0.2,1.3-0.7,1.5-1.4L9,12.2  c0.3-0.7,1-1.2,1.8-1.2h2.4c0.8,0,1.5,0.5,1.8,1.2l0.7,2.7c0.2,0.7,0.7,1.3,1.5,1.4L20,17"/>
<path d="M14.5,17v-5L12,11l-2.5,1v5l-3,2.6c-0.3,0.3-0.5,0.6-0.5,1v0C6,21.4,6.6,22,7.4,22H9v-1.9c0-0.6,0.5-1.1,1.1-1.1l0.5,0  c1.1-0.1,2.3,0.1,3.4,0.5l1,0.3L10,20v2h6.6c0.8,0,1.4-0.6,1.4-1.4v0c0-0.4-0.2-0.8-0.5-1L14.5,17z"/>
</svg>
