<svg xmlns="http://www.w3.org/2000/svg" xmlns:xlink="http://www.w3.org/1999/xlink" version="1.1" id="Layer_1" x="0px" y="0px" width="12pt" height="10pt" viewBox="0 0 100 100" enable-background="new 0 0 100 100" xml:space="preserve">
<path d="M96.643,78.059l-37.83-65.5l-0.015,0.007c-0.476-0.963-1.086-1.866-1.885-2.668c-3.815-3.815-10.009-3.815-13.826,0  c-0.693,0.692-1.262,1.468-1.693,2.287v-0.006L3.589,77.691v0.016c-0.598,0.875-1.071,1.865-1.356,2.953  c-1.399,5.219,1.696,10.584,6.911,11.975c0.938,0.252,1.887,0.354,2.824,0.324l75.644-0.012v-0.01  c3.623,0.252,7.238-1.506,9.182-4.854C98.648,84.855,98.475,81.012,96.643,78.059z M50.029,84.064c-4.571,0-8.276-3.705-8.276-8.277  s3.705-8.278,8.276-8.278c4.57,0,8.277,3.706,8.277,8.277C58.309,80.359,54.602,84.064,50.029,84.064z M52.956,62.184h-6.039  l-5.586-24.162c0-4.79,3.879-8.669,8.668-8.669c4.787,0,8.668,3.882,8.668,8.671L52.956,62.184z"/>
</svg>
