<svg xmlns="http://www.w3.org/2000/svg" xmlns:xlink="http://www.w3.org/1999/xlink" version="1.1" id="Layer_1" x="0px" y="0px" viewBox="5.0 -10.0 100.0 100.0" enable-background="new 0 0 100 100" xml:space="preserve" height="24pt" width="24pt">
<path d="M85.129,23.941c0.928-1.265,1.184-2.793,0.493-4.003h0c-0.428-0.75-1.154-1.239-2.01-1.477  c-0.039-0.022-15.859-8.292-15.859-8.292c-0.327-0.171-0.669-0.273-1.011-0.327c-1.213-2.571-3.69-4.471-6.723-4.794  c-3.067-0.327-5.918,1.041-7.641,3.345c-0.643-0.271-1.41-0.274-2.147,0.069c0,0-17.442,8.941-17.721,9.429  c-0.935,1.637-0.013,3.924,2.059,5.108l12.644,8.123c0.402,0.259,0.822,0.45,1.245,0.609c-0.282,3.192-0.808,9.223-0.993,11.71  c-0.257,3.471-0.994,7.25-1.639,10.073c0,0-11.102-2.043-11.535-2.01c-2.014-0.536-4.443,0.541-5.86,2.781L14.687,77.97  c-1.177,2.028-0.84,4.422,0.765,5.438h0c1.605,1.015,3.912,0.293,5.24-1.64L31.83,65.553l2.4,25.467  c0.22,2.331,1.884,4.081,3.78,3.975c1.896-0.106,3.355-2.031,3.314-4.372c0,0-0.552-27.896-0.601-28.17l15.893,4.588  c3.191,0.764,6.366-1.07,7.091-4.096c0.071-0.295,0.626-2.229,0.706-2.976c0,0,1.845-7.804,2.751-14.548  c0.289-2.152,0.677-7.036,0.924-10.342c0.512-0.18,1.021-0.402,1.507-0.714l13.785-8.856C83.902,25.208,85.007,24.117,85.129,23.941  z M66.01,26.037c-0.962-0.805-2.165-1.344-3.507-1.487l-6.651-0.709c-1.282-0.137-2.514,0.112-3.59,0.643  c-0.279-0.203-0.576-0.392-0.896-0.556l-9-4.602l8.388-4.956c0.43,3.843,3.473,7.01,7.477,7.437c3.868,0.412,7.395-1.866,8.74-5.326  l7.796,5.078L66.01,26.037z"/>
</svg>

