<svg xmlns="http://www.w3.org/2000/svg" xmlns:xlink="http://www.w3.org/1999/xlink" version="1.1" id="Layer_1" x="0px" y="0px" width="14pt" height="14pt" viewBox="5.0 -15.0 100.0 100.0" enable-background="new 0 0 100 100" xml:space="preserve">
<path d="M62.644,28.763c1.207-1.206,2.619-1.793,4.24-1.762c1.619,0.033,3.061,0.652,4.333,1.857  c1.143,1.144,1.714,2.572,1.714,4.286s-0.571,3.175-1.713,4.379L58.835,49.999l12.381,12.477c1.143,1.143,1.745,2.587,1.808,4.333  c0.063,1.746-0.54,3.252-1.808,4.523c-1.143,1.143-2.588,1.714-4.334,1.714c-1.747,0-3.253-0.667-4.525-2l-12.38-12.189  L37.599,71.332c-1.143,1.017-2.571,1.588-4.285,1.714c-1.714,0.125-3.207-0.443-4.476-1.713c-1.143-1.143-1.763-2.556-1.858-4.239  c-0.094-1.682,0.461-3.158,1.667-4.428l12.665-12.667L28.647,37.334c-1.206-1.205-1.746-2.602-1.62-4.19  c0.127-1.588,0.729-3.016,1.811-4.287c1.395-1.394,2.887-2.03,4.476-1.905c1.585,0.129,3.015,0.762,4.285,1.905l12.379,12.381  L62.644,28.763z"/>
</svg>

