<svg xmlns="http://www.w3.org/2000/svg" xmlns:xlink="http://www.w3.org/1999/xlink" version="1.1" id="Layer_1" x="0px" y="0px" width="12pt" height="12pt" viewBox="5.0 -10.0 100.0 100.0" enable-background="new 0 0 100 100" xml:space="preserve">
<path d="M74.005,43.837c1.706,0.001,3.12,0.584,4.244,1.752c1.121,1.168,1.703,2.626,1.751,4.377  c-0.001,1.617-0.607,3.031-1.819,4.243s-2.648,1.841-4.308,1.885L56.296,56.16l-0.067,17.577c0,1.616-0.596,3.063-1.785,4.343  c-1.19,1.279-2.682,1.918-4.477,1.92c-1.616,0-3.042-0.618-4.276-1.853c-1.235-1.235-1.829-2.771-1.785-4.614L43.771,56.16  l-17.575,0.068c-1.527-0.089-2.941-0.695-4.242-1.818S19.999,51.829,20,50.034c0-1.616,0.561-3.053,1.684-4.311  c1.122-1.256,2.559-1.907,4.31-1.953l17.912,0V25.859c-0.001-1.705,0.605-3.075,1.817-4.108c1.213-1.032,2.648-1.616,4.312-1.75  c1.972,0,3.477,0.606,4.512,1.818c1.029,1.212,1.593,2.671,1.683,4.377l-0.001,17.508L74.005,43.837z"/></svg>
