<svg xmlns="http://www.w3.org/2000/svg" xmlns:xlink="http://www.w3.org/1999/xlink" version="1.1" id="Layer_1" x="0px" y="0px" width="12pt" height="12pt" viewBox="5.0 -10.0 100.0 100.0" enable-background="new 0 0 100 100" xml:space="preserve">
<path fill="#000000" d="M79.244,54.34h-3.773H63.481H56.49H36.519V27.624c0-7.446,6.036-13.481,13.481-13.481  s13.481,6.036,13.481,13.481v5.687c1.087,0.662,1.815,1.854,1.815,3.221s-0.729,2.56-1.815,3.222V41.5  c-0.001,0.03-0.005,0.059-0.005,0.088s0.004,0.059,0.005,0.088v0.326h0.017c0.208,2.147,2.017,3.826,4.219,3.826h3.588  c2.342,0,4.239-1.898,4.239-4.24c0-0.265-0.027-0.521-0.073-0.773v-1.211c-0.96-0.685-1.589-1.804-1.589-3.073  c0-1.269,0.629-2.388,1.589-3.072V26.87c0-14.067-11.404-25.47-25.471-25.47S24.529,12.803,24.529,26.87v27.47h-3.773  c-2.084,0-3.773,1.689-3.773,3.773v38.111c0,2.086,1.689,3.775,3.773,3.775h58.488c2.084,0,3.773-1.689,3.773-3.775V58.113  C83.018,56.029,81.328,54.34,79.244,54.34z"/>
</svg>

