<svg xmlns="http://www.w3.org/2000/svg" xmlns:xlink="http://www.w3.org/1999/xlink" version="1.1" x="0px" y="0px" viewBox="20 5 60 60" enable-background="new 0 0 70 70" xml:space="preserve"><g><g><path d="M41.553,64.118h-7.296c-0.587,0-1.063-0.476-1.063-1.063V36.944c0-0.586,0.476-1.063,1.063-1.063h7.296    c0.586,0,1.063,0.476,1.063,1.063v26.112C42.615,63.643,42.139,64.118,41.553,64.118z M35.319,61.993h5.171V38.007h-5.171V61.993z    "/><path d="M65.744,64.118h-7.296c-0.586,0-1.063-0.476-1.063-1.063V43.444c0-0.587,0.476-1.063,1.063-1.063h7.296    c0.587,0,1.063,0.476,1.063,1.063v19.612C66.806,63.643,66.33,64.118,65.744,64.118z M59.511,61.993h5.171V44.506h-5.171    C59.511,44.506,59.511,61.993,59.511,61.993z"/><path d="M53.648,64.118h-7.296c-0.586,0-1.063-0.476-1.063-1.063V49.944c0-0.586,0.476-1.063,1.063-1.063h7.296    c0.587,0,1.063,0.476,1.063,1.063v13.112C54.711,63.643,54.235,64.118,53.648,64.118z M47.415,61.993h5.171V51.006h-5.171V61.993z    "/></g></g></svg>
