<svg xmlns="http://www.w3.org/2000/svg" xmlns:xlink="http://www.w3.org/1999/xlink" version="1.1" id="Your_Icon" x="0px" y="0px" width="14pt" height="14pt" viewBox="5.0 -10.0 100.0 100.0" enable-background="new 0 0 100 100" xml:space="preserve">
<path d="M16.172,13.732c0.762,1.394,1.442,2.815,2.07,4.254c0.635,1.437,1.233,2.886,1.786,4.351l-1.405-0.384  c0.845-0.801,1.723-1.562,2.596-2.331c0.863-0.779,1.772-1.505,2.66-2.254l0.986-0.833l0.495,1.185  c0.362,0.872,0.667,1.768,1.004,2.65c0.337,0.883,0.622,1.788,0.935,2.68c0.285,0.905,0.587,1.801,0.84,2.719  c0.269,0.912,0.51,1.834,0.719,2.77c-0.519-0.806-1.006-1.626-1.465-2.458c-0.474-0.825-0.9-1.67-1.343-2.509  c-0.415-0.85-0.858-1.688-1.249-2.549c-0.391-0.859-0.813-1.706-1.178-2.577l1.48,0.352c-0.877,0.763-1.733,1.55-2.636,2.284  c-0.892,0.745-1.779,1.497-2.7,2.208l-1.044,0.807l-0.361-1.191c-0.455-1.499-0.864-3.012-1.237-4.538  C16.746,16.843,16.417,15.302,16.172,13.732z M83.435,15.028c-0.871,0.26-1.725,0.565-2.586,0.849  c-0.863,0.278-1.708,0.605-2.562,0.907l-1.132,0.4l0.787,1.008c0.716,0.917,1.475,1.798,2.218,2.692  c0.736,0.899,1.514,1.765,2.279,2.639l0.314-1.471c-1.979,0.958-3.927,1.982-5.856,3.046c-1.922,1.079-3.83,2.187-5.671,3.44  c2.138-0.623,4.206-1.392,6.26-2.19c2.049-0.813,4.077-1.667,6.075-2.584l1.118-0.514l-0.803-0.958  c-0.749-0.89-1.485-1.79-2.261-2.656c-0.77-0.871-1.523-1.756-2.32-2.604l-0.344,1.407c0.824-0.372,1.661-0.719,2.477-1.115  c0.818-0.391,1.646-0.761,2.455-1.175c1.63-0.799,3.241-1.647,4.816-2.583C86.915,13.979,85.165,14.479,83.435,15.028z   M43.045,9.088c-0.19,0.962-0.329,1.929-0.495,2.894s-0.286,1.935-0.431,2.901l-0.175,1.166l1.239-0.186  c1.151-0.173,2.29-0.403,3.435-0.608c1.145-0.2,2.282-0.441,3.421-0.677l-1.129-0.983c-0.113,2.376-0.146,4.758-0.136,7.141  c0.025,2.384,0.086,4.77,0.312,7.165c0.482-2.357,0.801-4.722,1.083-7.09c0.268-2.368,0.492-4.738,0.637-7.113l0.073-1.204  l-1.203,0.22c-1.144,0.21-2.288,0.413-3.425,0.659c-1.137,0.241-2.28,0.456-3.411,0.728l1.064,0.979  c0.068-0.975,0.163-1.948,0.209-2.925s0.122-1.952,0.145-2.932c0.077-1.958,0.105-3.919,0.034-5.893  C43.794,5.24,43.395,7.161,43.045,9.088z M42.412,30.733c-1.129-1.636-1.706-5.563-3.236-7.078c-1.527-1.515-3.633-1.869-4.702-0.79  c-1.07,1.078-0.697,3.183,0.83,4.698C36.834,29.078,40.706,29.478,42.412,30.733z M58.663,31.093  c1.758-1.316,5.688-2.379,7.382-4.072c1.692-1.693,2.325-3.806,1.411-4.72c-0.912-0.913-3.027-0.281-4.72,1.412  C61.043,25.406,60.128,29.259,58.663,31.093z M55.544,30.719c0.578-1.422,2.551-3.476,2.954-5.101  c0.404-1.625,0.021-3.118-0.856-3.336c-0.876-0.218-1.914,0.923-2.319,2.547C54.919,26.454,55.76,29.093,55.544,30.719z   M92.921,61.469c-0.912,1.523-2.562,2.554-4.465,2.554H66.678v22.569c0,3.72-4.018,6.736-8.976,6.736H42.145  c-4.958,0-8.976-3.017-8.976-6.736V64.022H11.544c-1.904,0-3.553-1.03-4.465-2.552C7.021,61.384,6.984,61.29,6.933,61.2  c-0.069-0.132-0.151-0.257-0.208-0.395c-0.915-1.938-0.591-4.313,1.011-5.916l21.12-21.12c2.039-2.038,5.346-2.038,7.383,0  c2.04,2.039,2.04,5.345,0,7.384L23.813,53.58h17.598c0.224,0,0.437,0.039,0.653,0.065c-2.765-2.285-4.527-5.742-4.527-9.609  c0-6.884,5.58-12.464,12.463-12.464s12.465,5.58,12.465,12.464c0,3.867-1.763,7.323-4.527,9.609  c0.214-0.027,0.425-0.065,0.646-0.065h17.602L63.76,41.154c-2.038-2.039-2.038-5.345,0-7.384c2.039-2.038,5.346-2.038,7.384,0  l21.12,21.12c1.602,1.602,1.926,3.978,1.013,5.914c-0.062,0.146-0.146,0.277-0.22,0.416C93.009,61.302,92.975,61.389,92.921,61.469z   M56.988,42.537c0.376,1.342,1.302,2.256,2.068,2.042c0.765-0.214,1.079-1.477,0.703-2.819c-0.377-1.342-2.139-2.887-2.66-4.151  C57.257,38.878,56.612,41.194,56.988,42.537z M42.555,46.263c0.202-1.06-0.487-2.736-0.412-3.792  c-0.328,0.934-1.573,2.316-1.774,3.376c-0.202,1.059,0.125,2.012,0.729,2.126C41.702,48.088,42.354,47.322,42.555,46.263z"/></svg>

